#!OML:ASF I:\Actors\actors\Patient Classification 2\Patient 1\Session 1\actor1.ASF
:FULLY-SPECIFIED
:DEGREES
384
root -0.759412 18.1102 5.72953 -1.08996 -3.52342 -5.25878
lowerback 1.32922 1.6407 3.0085
upperback -1.26987 2.25198 -0.260754
thorax -1.92219 1.08029 -2.01708
lowerneck -14.2827 -2.91764 -1.6551
upperneck 35.2538 -5.10924 3.29044
head 14.7122 -1.97159 0.8002
rclavicle -2.08724e-015 -5.56597e-015
rhumerus -19.4796 44.3715 -84.8604
rradius 107.373
rwrist -39.094
rhand -3.80373 -38.8436
rfingers 7.12502
rthumb 21.9424 -67.6192
lclavicle -2.08724e-015 -5.56597e-015
lhumerus -20.8428 -31.4238 80.6612
lradius 111.256
lwrist 44.2088
lhand -6.13054 -16.4858
lfingers 7.12502
lthumb 19.7069 12.5353
rfemur 0 0 0
rtibia 0
rfoot 0 0
rtoes 0
lfemur 20.2923 -6.91909 -12.7407
ltibia -19.9492
lfoot -4.14761 21.1091
ltoes -6.98004
385
root -0.761102 18.1133 5.7238 -1.03418 -3.75463 -5.23973
lowerback 1.47125 1.67279 2.60754
upperback -1.31569 2.28937 -0.319105
thorax -2.05963 1.10166 -1.85954
lowerneck -14.022 -3.21686 -2.11196
upperneck 35.5088 -5.50395 3.4632
head 14.81 -2.1815 0.890566
rclavicle -1.98288e-014 -1.03368e-014
rhumerus -19.8895 44.0088 -84.3463
rradius 107.855
rwrist -39.7688
rhand -3.92262 -38.6323
rfingers 7.12502
rthumb 21.8283 -67.4212
lclavicle -1.98288e-014 -1.03368e-014
lhumerus -20.913 -31.5495 80.6009
lradius 111.096
lwrist 44.9634
lhand -6.55578 -16.0674
lfingers 7.12502
lthumb 19.298 12.9951
rfemur 0 0 0
rtibia 0
rfoot 0 0
rtoes 0
lfemur 20.2141 -6.97027 -12.792
ltibia -19.832
lfoot -4.28676 21.3915
ltoes -6.80903
386
root -0.761326 18.1165 5.71907 -0.98601 -3.91948 -5.16851
lowerback 1.67898 1.71 2.18372
upperback -1.40283 2.33237 -0.419054
thorax -2.27596 1.12502 -1.73552
lowerneck -13.6961 -3.58409 -2.64937
upperneck 35.7123 -6.02165 3.748
head 14.8869 -2.44203 1.02206
rclavicle 1.35671e-014 -9.54166e-015
rhumerus -20.6075 43.6048 -83.7443
rradius 108.347
rwrist -40.614
rhand -3.61071 -38.1914
rfingers 7.12502
rthumb 22.1278 -66.9451
lclavicle 1.35671e-014 -9.54166e-015
lhumerus -21.1782 -31.9553 80.6376
lradius 110.802
lwrist 45.4372
lhand -6.93055 -16.1246
lfingers 7.12502
lthumb 18.9376 12.9735
rfemur 0 0 0
rtibia 0
rfoot 0 0
rtoes 0
lfemur 20.1409 -6.93101 -12.8816
ltibia -19.746
lfoot -4.37657 21.4988
ltoes -6.72532
387
root -0.7605 18.1187 5.71428 -0.955094 -4.03231 -5.14804
lowerback 1.77655 1.71275 1.88877
upperback -1.39218 2.32685 -0.551228
thorax -2.326 1.12543 -1.70923
lowerneck -13.4054 -3.95828 -3.26688
upperneck 35.8181 -6.57504 4.16484
head 14.9442 -2.71239 1.2156
rclavicle 1.85367e-014 -4.77083e-015
rhumerus -21.2351 43.2787 -82.8039
rradius 108.796
rwrist -41.3943
rhand -2.14299 -37.925
rfingers 7.12502
rthumb 23.5362 -66.5049
lclavicle 1.85367e-014 -4.77083e-015
lhumerus -21.398 -32.5747 80.5215
lradius 110.377
lwrist 45.5421
lhand -7.27494 -16.2084
lfingers 7.12502
lthumb 18.6064 12.9218
rfemur 0 0 0
rtibia 0
rfoot 0 0
rtoes 0
lfemur 20.1012 -6.98203 -12.9259
ltibia -19.6959
lfoot -4.50724 21.6424
ltoes -6.46078
388
root -0.75788 18.1202 5.70846 -0.958316 -4.05378 -5.2208
lowerback 2.03077 1.67651 1.69462
upperback -1.44744 2.27544 -0.640481
thorax -2.5318 1.09934 -1.70048
lowerneck -13.0586 -4.30883 -3.95719
upperneck 35.971 -7.08642 4.5942
head 15.0214 -2.97466 1.4365
rclavicle 1.59525e-014 6.36111e-015
rhumerus -22.056 43.2398 -81.5764
rradius 109.112
rwrist -41.519
rhand -0.525701 -37.4708
rfingers 7.12502
rthumb 25.0867 -65.8429
lclavicle 1.59525e-014 6.36111e-015
lhumerus -21.8841 -33.4215 80.6064
lradius 109.869
lwrist 45.5818
lhand -7.64148 -16.2633
lfingers 7.12502
lthumb 18.2538 12.9002
rfemur 0 0 0
rtibia 0
rfoot 0 0
rtoes 0
lfemur 20.0959 -7.11619 -12.8763
ltibia -19.6743
lfoot -4.60176 21.7928
ltoes -6.14608
389
root -0.755233 18.1206 5.70107 -1.01925 -3.96884 -5.26274
lowerback 2.33265 1.60408 1.5543
upperback -1.46524 2.17411 -0.823837
thorax -2.72227 1.04719 -1.81681
lowerneck -12.7048 -4.64291 -4.64047
upperneck 36.0458 -7.62737 5.15693
head 15.0776 -3.23327 1.70714
rclavicle -2.27608e-014 1.98785e-014
rhumerus -22.7476 43.3833 -80.0473
rradius 109.173
rwrist -41.0575
rhand 0.0869992 -37.0386
rfingers 7.12502
rthumb 25.6737 -65.3273
lclavicle -2.27608e-014 1.98785e-014
lhumerus -22.3222 -34.4931 80.6583
lradius 109.205
lwrist 45.8426
lhand -8.14126 -16.1732
lfingers 7.12502
lthumb 17.7729 13.0346
rfemur 0 0 0
rtibia 0
rfoot 0 0
rtoes 0
lfemur 20.1319 -7.27756 -12.8593
ltibia -19.6883
lfoot -4.60586 21.8842
ltoes -6.07347
390
root -0.754083 18.1197 5.6925 -1.14241 -3.76433 -5.20861
lowerback 2.42636 1.55336 0.776887
upperback -1.28214 2.0826 -0.690651
thorax -2.62217 1.01879 -1.24034
lowerneck -12.3814 -5.05751 -5.55929
upperneck 35.8862 -8.14851 5.56619
head 15.0401 -3.53685 1.9544
rclavicle -1.37658e-014 5.56597e-015
rhumerus -22.9621 43.7581 -77.2084
rradius 109.213
rwrist -40.8192
rhand 0.972364 -37.2243
rfingers 7.12502
rthumb 26.5214 -65.3879
lclavicle -1.37658e-014 5.56597e-015
lhumerus -22.427 -35.554 81.2503
lradius 108.224
lwrist 46.24
lhand -8.46096 -16.1219
lfingers 7.12502
lthumb 17.4653 13.1135
rfemur 0 0 0
rtibia 0
rfoot 0 0
rtoes 0
lfemur 20.2012 -7.38312 -12.9293
ltibia -19.7501
lfoot -4.49318 21.8236
ltoes -6.19809
391
root -0.752657 18.1184 5.68354 -1.32769 -3.40137 -5.13172
lowerback 2.68209 1.446 0.359637
upperback -1.1166 1.92077 -0.857015
thorax -2.60786 0.944365 -1.17477
lowerneck -12.0575 -5.43738 -6.26874
upperneck 35.677 -8.74247 6.14292
head 14.994 -3.82313 2.22141
rclavicle -1.53064e-014 5.56597e-015
rhumerus -23.3251 44.0345 -74.5243
rradius 109.166
rwrist -40.5985
rhand 1.92784 -37.3023
rfingers 7.12502
rthumb 27.4356 -65.3244
lclavicle -1.53064e-014 5.56597e-015
lhumerus -22.4358 -36.9704 81.515
lradius 107.176
lwrist 46.7014
lhand -8.50851 -16.1311
lfingers 7.12502
lthumb 17.4195 13.1084
rfemur 0 0 0
rtibia 0
rfoot 0 0
rtoes 0
lfemur 20.311 -7.41163 -13.0041
ltibia -19.8491
lfoot -4.23662 21.5408
ltoes -6.41882
392
root -0.751122 18.1187 5.67269 -1.47122 -2.92546 -5.1564
lowerback 2.89124 1.33108 0.00845264
upperback -0.923196 1.75111 -0.989206
thorax -2.53668 0.865132 -1.10805
lowerneck -11.7533 -5.83119 -7.07865
upperneck 35.394 -9.36114 6.81745
head 14.9443 -4.12141 2.54007
rclavicle 1.59028e-015 -1.59028e-014
rhumerus -23.607 44.3458 -71.4859
rradius 109.028
rwrist -39.9666
rhand 2.0966 -37.1837
rfingers 7.12502
rthumb 27.597 -65.1802
lclavicle 1.59028e-015 -1.59028e-014
lhumerus -22.3555 -38.5567 81.9446
lradius 106.118
lwrist 46.6891
lhand -8.70406 -16.036
lfingers 7.12502
lthumb 17.2313 13.22
rfemur 0 0 0
rtibia 0
rfoot 0 0
rtoes 0
lfemur 20.339 -7.37618 -12.9337
ltibia -19.9545
lfoot -3.82864 21.0983
ltoes -6.94912
393
root -0.751812 18.1208 5.65864 -1.48974 -2.36441 -5.25822
lowerback 3.05547 1.20158 -0.29523
upperback -0.796252 1.56267 -1.13122
thorax -2.50616 0.774985 -1.07643
lowerneck -11.3968 -6.20804 -7.77658
upperneck 35.0704 -9.97372 7.45568
head 14.8657 -4.41004 2.82441
rclavicle -1.12313e-014 2.38542e-014
rhumerus -23.77 44.6877 -68.2364
rradius 108.766
rwrist -38.471
rhand 1.96579 -37.1776
rfingers 7.12502
rthumb 27.4719 -65.194
lclavicle -1.12313e-014 2.38542e-014
lhumerus -22.2849 -40.2913 82.5499
lradius 104.985
lwrist 45.9177
lhand -8.9576 -16.1936
lfingers 7.12502
lthumb 16.9873 13.0836
rfemur 0 0 0
rtibia 0
rfoot 0 0
rtoes 0
lfemur 20.1633 -7.25492 -12.7188
ltibia -20.0416
lfoot -3.31682 20.5055
ltoes -7.68581
394
root -0.752532 18.1241 5.64409 -1.48126 -1.8041 -5.24734
lowerback 3.23411 1.06196 -0.742992
upperback -0.629722 1.35389 -1.29542
thorax -2.44517 0.67637 -0.984988
lowerneck -11.2136 -6.57265 -8.37214
upperneck 34.6932 -10.5549 8.0247
head 14.7975 -4.6766 3.0597
rclavicle -8.69683e-015 7.95139e-015
rhumerus -23.3747 45.1123 -64.4955
rradius 108.278
rwrist -36.4862
rhand 1.78183 -37.1841
rfingers 7.12502
rthumb 27.2959 -65.2283
lclavicle -8.69683e-015 7.95139e-015
lhumerus -21.9881 -41.9879 83.1984
lradius 103.783
lwrist 44.6535
lhand -9.07379 -16.699
lfingers 7.12502
lthumb 16.8754 12.5877
rfemur 0 0 0
rtibia 0
rfoot 0 0
rtoes 0
lfemur 19.9902 -7.26919 -12.6491
ltibia -20.2014
lfoot -2.87432 20.0567
ltoes -8.01813
395
root -0.751543 18.1286 5.63008 -1.50949 -1.35445 -5.12069
lowerback 3.41234 0.951863 -1.30451
upperback -0.393883 1.17966 -1.48116
thorax -2.31245 0.595476 -0.852341
lowerneck -11.1583 -6.92425 -8.88034
upperneck 34.2923 -11.1093 8.54557
head 14.7438 -4.92279 3.25803
rclavicle -2.28602e-015 2.70347e-014
rhumerus -22.2194 45.3155 -60.0985
rradius 107.778
rwrist -34.2165
rhand 1.44149 -36.9464
rfingers 7.12502
rthumb 26.9703 -65.0414
lclavicle -2.28602e-015 2.70347e-014
lhumerus -21.4266 -43.6945 83.7715
lradius 102.604
lwrist 43.2894
lhand -9.09127 -17.2551
lfingers 7.12502
lthumb 16.8586 12.0331
rfemur 0 0 0
rtibia 0
rfoot 0 0
rtoes 0
lfemur 19.9067 -7.54293 -12.7801
ltibia -20.3589
lfoot -2.61901 19.944
ltoes -8.01031
396
root -0.750114 18.129 5.62972 -1.53419 -0.643934 -5.39779
lowerback 3.31447 0.728857 -1.42407
upperback -0.1417 0.883301 -1.5689
thorax -2.00026 0.4475 -0.855349
lowerneck -10.9255 -7.20961 -9.25282
upperneck 33.8927 -11.5868 9.0008
head 14.632 -5.13384 3.42317
rclavicle 4.77704e-015 -3.18055e-015
rhumerus -21.1144 45.2297 -55.8642
rradius 107.303
rwrist -32.9031
rhand 0.887743 -36.8143
rfingers 7.12502
rthumb 26.4404 -64.9901
lclavicle 4.77704e-015 -3.18055e-015
lhumerus -20.8216 -45.4423 84.3558
lradius 101.419
lwrist 42.0377
lhand -8.97024 -17.843
lfingers 7.12502
lthumb 16.9751 11.4352
rfemur 0 0 0
rtibia 0
rfoot 0 0
rtoes 0
lfemur 19.8085 -7.5201 -12.392
ltibia -20.4998
lfoot -2.23139 19.2634
ltoes -8.36513
